<svg xmlns="http://www.w3.org/2000/svg" xmlns:xlink="http://www.w3.org/1999/xlink" width="500" zoomAndPan="magnify" viewBox="0 0 375 374.999991" height="500" preserveAspectRatio="xMidYMid meet" version="1.0"><defs><filter x="0%" y="0%" width="100%" height="100%" id="01b0cd63af"><feColorMatrix values="0 0 0 0 1 0 0 0 0 1 0 0 0 0 1 0 0 0 1 0" color-interpolation-filters="sRGB"/></filter><mask id="655e87f45f"><g filter="url(#01b0cd63af)"><rect x="-37.5" width="450" fill="#000000" y="-37.499999" height="449.999989" fill-opacity="0.29"/></g></mask><clipPath id="1c175b1bac"><path d="M 0.558594 0 L 116.480469 0 L 116.480469 176.640625 L 0.558594 176.640625 Z M 0.558594 0 " clip-rule="nonzero"/></clipPath><clipPath id="c34eb38f3b"><rect x="0" width="117" y="0" height="177"/></clipPath><mask id="a2286688e5"><g filter="url(#01b0cd63af)"><rect x="-37.5" width="450" fill="#000000" y="-37.499999" height="449.999989" fill-opacity="0.28"/></g></mask><clipPath id="c79912ab31"><path d="M 0.359375 1 L 73.800781 1 L 73.800781 32.839844 L 0.359375 32.839844 Z M 0.359375 1 " clip-rule="nonzero"/></clipPath><clipPath id="41cf884566"><rect x="0" width="74" y="0" height="33"/></clipPath><mask id="07d42b8c9b"><g filter="url(#01b0cd63af)"><rect x="-37.5" width="450" fill="#000000" y="-37.499999" height="449.999989" fill-opacity="0.19"/></g></mask><clipPath id="a56ed503fe"><path d="M 0.121094 1 L 58.441406 1 L 58.441406 106.679688 L 0.121094 106.679688 Z M 0.121094 1 " clip-rule="nonzero"/></clipPath><clipPath id="a651865399"><rect x="0" width="59" y="0" height="107"/></clipPath><mask id="bd75006b62"><g filter="url(#01b0cd63af)"><rect x="-37.5" width="450" fill="#000000" y="-37.499999" height="449.999989" fill-opacity="0.33"/></g></mask><clipPath id="e7e3daf77b"><path d="M 0.199219 0.238281 L 39.800781 0.238281 L 39.800781 22.558594 L 0.199219 22.558594 Z M 0.199219 0.238281 " clip-rule="nonzero"/></clipPath><clipPath id="b1de9d9b55"><rect x="0" width="40" y="0" height="23"/></clipPath><mask id="2148994987"><g filter="url(#01b0cd63af)"><rect x="-37.5" width="450" fill="#000000" y="-37.499999" height="449.999989" fill-opacity="0.33"/></g></mask><clipPath id="ad46e0ab4d"><path d="M 1 0.320312 L 8.640625 0.320312 L 8.640625 13.519531 L 1 13.519531 Z M 1 0.320312 " clip-rule="nonzero"/></clipPath><clipPath id="47b0d82a5a"><rect x="0" width="9" y="0" height="14"/></clipPath></defs><path fill="#a6a6a6" d="M 107.53125 109.863281 C 99.351562 94.609375 91.003906 78.8125 89.535156 61.570312 C 88.363281 47.769531 91.699219 34.027344 95.003906 20.578125 C 109.828125 39.164062 123.222656 58.886719 135.027344 79.523438 C 141.742188 75.046875 148.859375 71.1875 156.269531 68.003906 C 155.777344 68.746094 155.285156 69.480469 154.792969 70.222656 C 164.054688 60.003906 171.355469 48.179688 179.863281 37.328125 C 188.371094 26.472656 198.492188 16.308594 211.863281 11.460938 C 221.347656 33.796875 225.261719 58.480469 223.433594 82.164062 C 222.148438 92.375 223.527344 102.714844 224.910156 112.914062 C 220.9375 99.636719 222.167969 84.875 228.292969 72.445312 C 233.625 71.765625 239.164062 72.777344 243.914062 75.300781 C 249.46875 78.253906 253.75 83.066406 258.253906 87.457031 C 262.761719 91.851562 267.902344 96.046875 274.082031 97.210938 C 268.871094 100.878906 262.085938 102.234375 255.863281 100.847656 C 268.976562 110.375 286.6875 113.234375 302.132812 108.316406 C 297.984375 114.558594 292.75 120.074219 286.738281 124.550781 C 290.679688 131.003906 297.015625 135.960938 304.234375 138.226562 C 304.785156 139.734375 302.976562 140.988281 301.464844 141.539062 C 295.832031 143.605469 289.9375 144.964844 284.441406 144.636719 C 290.308594 145.105469 294.964844 150.0625 297.234375 155.492188 C 299.507812 160.921875 299.972656 166.902344 301.152344 172.667969 C 302.332031 178.433594 304.484375 184.378906 309.125 188 C 303.859375 188.804688 298.601562 189.613281 293.339844 190.417969 C 293.761719 190.011719 294.1875 189.597656 294.609375 189.1875 C 299.9375 198.722656 301.558594 210.265625 299.054688 220.894531 C 296.554688 231.527344 289.957031 241.136719 280.9375 247.292969 C 280.878906 241.785156 280.816406 236.273438 282.285156 232.238281 C 274.96875 259.722656 258.695312 284.738281 236.542969 302.570312 C 238.78125 292.992188 241.027344 283.410156 243.265625 273.832031 C 229.480469 288.558594 217.855469 305.308594 208.886719 323.378906 C 205.046875 317.359375 203.921875 309.496094 206.621094 302.882812 C 185.175781 318.792969 167.367188 339.582031 154.9375 363.214844 C 154.390625 353.953125 149.410156 345.558594 143.941406 338.058594 C 138.472656 330.554688 132.308594 323.378906 128.78125 314.796875 C 125.253906 306.210938 124.847656 295.609375 130.339844 288.695312 C 122.964844 294.671875 113.554688 298.085938 104.066406 298.230469 C 109.734375 296.261719 112.996094 290.429688 115.304688 284.894531 C 118.773438 276.585938 121.28125 267.871094 122.75 258.988281 C 124.089844 250.898438 124.597656 242.585938 127.359375 234.863281 C 130.125 227.140625 135.714844 219.835938 143.625 217.675781 C 132.460938 224.164062 120.140625 228.660156 107.417969 230.886719 C 104.320312 231.425781 100.996094 231.8125 98.136719 230.503906 C 92.632812 227.988281 90.824219 220.210938 85.097656 218.257812 C 83.601562 219.230469 81.519531 218.238281 80.492188 216.78125 C 79.464844 215.328125 79.089844 213.511719 78.289062 211.917969 C 75.148438 205.675781 68.953125 203.390625 66.210938 196.960938 C 65.179688 194.550781 65.316406 194.796875 67.09375 192.871094 C 68.871094 190.941406 69.667969 188.011719 72.847656 188.5 C 86.769531 181.574219 98.25 169.855469 104.890625 155.796875 C 96.949219 141.65625 97.933594 122.984375 107.519531 109.878906 Z M 107.53125 109.863281 " fill-opacity="1" fill-rule="nonzero"/><path fill="#545454" d="M 173.613281 43.605469 C 168.253906 44.953125 164.964844 50.246094 162.605469 55.242188 C 159.300781 62.234375 156.652344 69.859375 157.394531 77.558594 C 158.132812 85.257812 163.027344 92.980469 170.503906 94.976562 C 167.390625 92.917969 165.210938 89.503906 164.640625 85.820312 C 166.386719 91.058594 171.367188 94.554688 176.457031 96.6875 C 181.546875 98.824219 187.042969 99.980469 191.921875 102.558594 C 206.128906 110.046875 213.125 128.277344 228.378906 133.289062 C 224.417969 129.261719 222.367188 123.664062 221.621094 118.066406 C 220.875 112.460938 221.324219 106.78125 221.730469 101.140625 C 223.941406 70.5625 224.613281 38.542969 211.65625 10.761719 C 197.015625 17.960938 184.039062 28.503906 173.996094 41.363281 C 175.875 39.242188 177.75 37.125 179.628906 35.007812 C 175.765625 37.339844 172.792969 41.117188 173.613281 43.605469 Z M 173.613281 43.605469 " fill-opacity="1" fill-rule="nonzero"/><path fill="#545454" d="M 123.234375 89.085938 C 123.273438 88.839844 123.320312 88.492188 123.347656 88.320312 C 123.414062 87.785156 123.480469 87.25 123.535156 86.71875 C 123.808594 84.121094 123.972656 81.507812 124.023438 78.894531 C 124.070312 76.273438 124.007812 73.648438 123.828125 71.03125 C 123.742188 69.71875 123.625 68.410156 123.476562 67.101562 C 123.453125 66.914062 123.34375 66.074219 123.320312 65.863281 C 123.246094 65.363281 123.167969 64.859375 123.089844 64.359375 C 122.859375 62.921875 122.859375 61.546875 123.257812 60.277344 C 123.132812 59.707031 123.015625 59.136719 122.882812 58.570312 C 114.875 44.429688 105.269531 31.144531 93.902344 19.113281 C 84.972656 49.742188 89.769531 84.09375 106.75 111.101562 C 112.09375 104.640625 117.4375 98.179688 122.789062 91.71875 C 122.949219 90.84375 123.105469 89.96875 123.238281 89.085938 Z M 123.234375 89.085938 " fill-opacity="1" fill-rule="nonzero"/><path fill="#545454" d="M 129.679688 153.316406 C 127.28125 153.988281 124.601562 152.804688 123.121094 150.800781 C 121.640625 148.800781 121.246094 146.140625 121.613281 143.679688 C 121.980469 141.214844 123.050781 138.910156 124.273438 136.738281 C 126.492188 132.8125 129.253906 129.199219 132.464844 126.03125 C 129.832031 129.140625 128.046875 132.953125 127.339844 136.964844 C 131.441406 129.355469 137.777344 122.964844 145.355469 118.796875 C 140.941406 123.542969 137.476562 129.171875 135.21875 135.246094 C 138.082031 130.972656 142.242188 127.574219 147.007812 125.628906 C 151.40625 123.832031 156.492188 123.125 159.878906 119.789062 C 156.929688 123.882812 153.355469 127.527344 149.324219 130.554688 C 153.589844 128.160156 158.253906 126.558594 162.710938 124.539062 C 167.167969 122.515625 171.539062 119.972656 174.59375 116.148438 C 174.375 121.347656 170.621094 125.777344 166.339844 128.746094 C 162.0625 131.710938 157.144531 133.644531 152.828125 136.550781 C 148.339844 139.570312 144.613281 143.566406 140.472656 147.046875 C 136.332031 150.527344 131.527344 153.578125 129.679688 153.316406 Z M 129.679688 153.316406 " fill-opacity="1" fill-rule="nonzero"/><path fill="#545454" d="M 105.417969 154.257812 C 107.242188 155.050781 109.441406 153.855469 110.433594 152.128906 C 111.433594 150.410156 111.527344 148.328125 111.566406 146.339844 C 111.675781 141.148438 111.59375 135.90625 110.445312 130.84375 C 108.476562 133.8125 107.441406 137.382812 107.507812 140.941406 C 106.332031 136.6875 104.699219 132.558594 102.648438 128.648438 C 99.6875 136.660156 100.769531 146.054688 105.414062 154.253906 Z M 105.417969 154.257812 " fill-opacity="1" fill-rule="nonzero"/><path fill="#545454" d="M 144.140625 147.1875 C 143.066406 147.925781 142.175781 148.933594 141.574219 150.089844 C 143.167969 149.480469 144.808594 148.980469 146.480469 148.609375 C 146.65625 148.425781 146.980469 148.429688 147.183594 148.585938 C 147.390625 148.742188 147.492188 149.003906 147.503906 149.261719 C 147.519531 149.519531 147.460938 149.773438 147.398438 150.019531 C 147.902344 149.46875 148.269531 148.789062 148.457031 148.066406 C 148.523438 147.796875 148.570312 147.511719 148.488281 147.242188 C 148.390625 146.902344 148.089844 146.644531 147.761719 146.515625 C 147.429688 146.390625 147.066406 146.378906 146.710938 146.398438 C 145.394531 146.488281 144.117188 147.050781 143.171875 147.964844 " fill-opacity="1" fill-rule="nonzero"/><path fill="#d9d9d9" d="M 167.691406 343.371094 C 163.910156 331.527344 169.078125 318.46875 176.902344 308.804688 C 184.722656 299.144531 195.019531 291.832031 203.84375 283.078125 C 212.667969 274.320312 220.328125 263.210938 220.53125 250.78125 C 222.789062 256.804688 222.335938 263.796875 219.3125 269.476562 C 232.988281 256.765625 242.316406 239.453125 245.414062 221.039062 C 246.589844 226.257812 246.167969 231.828125 244.210938 236.804688 C 248.496094 232.03125 251.710938 226.300781 253.550781 220.15625 L 252.53125 232.242188 C 259.351562 225.496094 263.285156 215.929688 263.199219 206.335938 C 264.621094 210.269531 264.753906 214.664062 263.558594 218.671875 C 270.269531 211.742188 272.761719 201.011719 269.789062 191.835938 C 266.816406 182.65625 258.507812 175.425781 249.003906 173.746094 C 253.492188 183.917969 254.164062 195.726562 250.855469 206.34375 C 250.039062 199.433594 246.164062 192.933594 240.472656 188.933594 C 239.347656 204.054688 236.515625 219.050781 232.054688 233.542969 C 231.894531 225.683594 228.933594 217.910156 223.828125 211.933594 C 222.859375 218.792969 221.136719 225.546875 218.710938 232.039062 C 218.144531 227.363281 215.296875 223.019531 211.230469 220.636719 C 210.292969 232.597656 209.304688 244.65625 205.898438 256.160156 C 202.488281 267.660156 196.441406 278.710938 187 286.109375 C 180.835938 290.933594 173.375 294.113281 167.960938 299.761719 C 161.878906 306.105469 159.019531 314.988281 158.375 323.75 C 157.730469 332.511719 159.113281 341.285156 160.488281 349.960938 C 162.660156 347.113281 164.835938 344.257812 167.691406 343.371094 Z M 167.691406 343.371094 " fill-opacity="1" fill-rule="nonzero"/><path fill="#d9d9d9" d="M 261.328125 199.449219 C 273.894531 229.492188 268.464844 266.292969 247.761719 291.425781 C 256.4375 282.171875 264.726562 272.402344 270.800781 261.261719 C 276.875 250.125 280.664062 237.46875 279.8125 224.808594 C 282.484375 232.378906 282.207031 240.949219 279.050781 248.332031 C 287.332031 239.867188 290.179688 227.164062 288.871094 215.390625 C 287.566406 203.621094 282.5625 192.585938 276.917969 182.175781 C 279.871094 184.011719 282.320312 186.652344 283.925781 189.734375 C 280.953125 170.390625 269.316406 152.546875 252.808594 142.03125 C 256.863281 144.070312 260.921875 146.109375 264.976562 148.152344 C 257.828125 142.839844 251.601562 136.289062 246.660156 128.878906 C 250.785156 133.132812 256.164062 136.160156 261.941406 137.488281 C 257.488281 135.167969 253.6875 131.609375 251.085938 127.3125 C 254.535156 129.5 258.5625 130.773438 262.785156 129.921875 C 258.675781 125.058594 255.085938 119.757812 252.097656 114.132812 C 254.605469 116.3125 257.71875 117.792969 260.996094 118.363281 C 252.285156 112.484375 245.136719 104.3125 240.46875 94.898438 C 245.027344 100.785156 251.203125 105.398438 258.136719 108.109375 C 254.429688 104.613281 250.722656 101.121094 247.011719 97.632812 C 252 99.933594 257.484375 101.164062 262.976562 101.21875 C 254.574219 97.6875 247.339844 91.449219 242.601562 83.667969 C 252.601562 87.304688 262.0625 92.429688 270.574219 98.808594 C 263.296875 89.859375 253.839844 82.988281 244.496094 76.222656 C 241.871094 74.320312 238.949219 72.332031 235.722656 72.574219 C 232.433594 72.816406 229.695312 75.425781 228.332031 78.429688 C 226.96875 81.433594 226.726562 84.8125 226.503906 88.101562 C 225.980469 95.765625 225.457031 103.429688 224.933594 111.09375 C 224.453125 118.074219 224.046875 125.429688 227.117188 131.71875 C 230.179688 137.996094 236.207031 142.1875 241.855469 146.296875 C 248.308594 150.996094 254.648438 156.015625 259.53125 162.332031 C 264.414062 168.644531 267.777344 176.429688 267.507812 184.40625 C 263.699219 178.515625 258.128906 173.777344 251.703125 170.96875 C 253.0625 179.773438 256.566406 188.050781 261.328125 199.445312 Z M 261.328125 199.449219 " fill-opacity="1" fill-rule="nonzero"/><path fill="#d9d9d9" d="M 267.699219 164.5 C 273.097656 163.09375 278.867188 165.09375 283.5 168.199219 C 288.132812 171.304688 291.957031 175.449219 296.242188 179.015625 C 300.527344 182.585938 305.5625 185.671875 311.125 185.996094 C 302.441406 190.296875 291.417969 189.414062 283.523438 183.789062 C 281.003906 181.992188 278.710938 179.714844 275.75 178.800781 C 274.902344 178.539062 273.96875 178.371094 273.328125 177.757812 C 272.804688 177.25 272.558594 176.527344 272.339844 175.828125 C 271.242188 172.386719 270.144531 168.949219 267.699219 164.5 Z M 267.699219 164.5 " fill-opacity="1" fill-rule="nonzero"/><path fill="#d9d9d9" d="M 288.664062 110.976562 C 286.523438 115.929688 282.9375 120.253906 278.464844 123.277344 C 282.097656 123.914062 286.097656 124.496094 289.269531 122.605469 C 291.160156 121.476562 292.472656 119.609375 293.714844 117.789062 C 295.410156 115.304688 297.082031 112.804688 298.726562 110.285156 C 299.082031 109.746094 299.429688 109.007812 299.027344 108.503906 C 298.679688 108.066406 298.007812 108.128906 297.460938 108.242188 C 293.773438 108.996094 290.171875 110.183594 288.667969 110.976562 Z M 288.664062 110.976562 " fill-opacity="1" fill-rule="nonzero"/><path fill="#d9d9d9" d="M 293.441406 131.589844 C 284.933594 135.585938 274.4375 135.003906 266.429688 130.09375 C 266.472656 130.625 265.796875 131.054688 265.339844 130.789062 C 269.722656 136.53125 276.199219 140.636719 283.261719 142.152344 C 290.324219 143.671875 297.917969 142.585938 304.273438 139.15625 C 300.355469 135.6875 295.699219 133.0625 293.441406 131.59375 Z M 293.441406 131.589844 " fill-opacity="1" fill-rule="nonzero"/><path fill="#d9d9d9" d="M 163.097656 342.121094 C 160.730469 332.8125 164.71875 322.792969 171.140625 315.652344 C 177.5625 308.511719 186.144531 303.738281 194.648438 299.273438 C 203.152344 294.808594 211.878906 290.429688 218.871094 283.851562 C 216.671875 288.871094 214.476562 293.894531 212.277344 298.914062 C 229.371094 282.988281 241.714844 262.019531 247.355469 239.347656 C 250.953125 247.550781 250.058594 257.167969 246.882812 265.542969 C 243.710938 273.921875 238.445312 281.3125 233.238281 288.605469 C 224.707031 300.542969 216.171875 312.484375 207.640625 324.425781 C 204.617188 317.515625 204.417969 309.414062 207.101562 302.367188 C 201.652344 310.511719 193.28125 316.128906 185.492188 322.078125 C 177.703125 328.023438 169.996094 334.972656 166.914062 344.277344 C 166.625 345.152344 166.351562 346.082031 165.675781 346.710938 C 163.902344 348.363281 160.753906 346.425781 160.410156 344.023438 C 160.066406 341.625 161.464844 339.359375 163.101562 342.125 Z M 163.097656 342.121094 " fill-opacity="1" fill-rule="nonzero"/><path fill="#d9d9d9" d="M 239.265625 194.015625 C 240.601562 203.207031 240.011719 212.675781 237.539062 221.632812 C 238.273438 206.449219 233.828125 191.253906 226.160156 178.132812 C 218.496094 165.007812 207.71875 153.875 195.636719 144.652344 C 206.5625 149.121094 216.050781 156.597656 224.195312 165.140625 C 232.34375 173.683594 239.242188 183.316406 246.117188 192.914062 C 244.628906 191.351562 242.871094 189.675781 240.714844 189.734375 C 238.554688 189.792969 236.832031 192.925781 239.265625 194.019531 Z M 239.265625 194.015625 " fill-opacity="1" fill-rule="nonzero"/><path fill="#d9d9d9" d="M 249.699219 174.542969 C 252.417969 181.726562 253.109375 189.664062 251.671875 197.214844 C 250.03125 189.308594 248.371094 181.328125 245.101562 173.949219 C 241.828125 166.566406 236.777344 159.722656 229.746094 155.746094 C 242.015625 160.898438 253.28125 168.425781 262.726562 177.800781 C 260.851562 177.304688 259.324219 175.988281 257.753906 174.851562 C 256.179688 173.71875 254.332031 172.695312 252.40625 172.9375 C 250.484375 173.175781 248.738281 175.261719 249.703125 174.539062 Z M 249.699219 174.542969 " fill-opacity="1" fill-rule="nonzero"/><path fill="#d9d9d9" d="M 151.625 70.515625 C 150.628906 75.710938 151.207031 81.199219 153.261719 86.078125 C 152.578125 83.769531 152.648438 81.242188 153.460938 78.976562 C 153.617188 85.367188 156.242188 91.664062 160.679688 96.269531 C 167.65625 103.511719 178.070312 106.027344 187.863281 108.496094 C 185.746094 108.921875 183.777344 110.03125 182.320312 111.625 C 184.804688 110.488281 187.777344 110.863281 190.246094 112.019531 C 192.722656 113.179688 194.785156 115.046875 196.753906 116.941406 C 202.476562 122.449219 207.730469 128.445312 212.359375 134.453125 C 210.433594 133.0625 208.503906 131.671875 206.578125 130.285156 C 208.808594 137.496094 216.300781 141.671875 223.476562 144.015625 C 230.652344 146.359375 238.425781 147.75 244.335938 152.449219 C 236.484375 138.023438 218.824219 131.984375 208.210938 119.449219 C 204.582031 115.167969 201.742188 110.085938 197.203125 106.78125 C 190.621094 101.992188 181.765625 101.851562 174.359375 98.46875 C 162.804688 93.1875 155.933594 79.28125 158.761719 66.894531 C 156.039062 68.238281 153.316406 69.582031 151.621094 70.519531 Z M 151.625 70.515625 " fill-opacity="1" fill-rule="nonzero"/><path fill="#d9d9d9" d="M 127.480469 68.890625 C 126.90625 72.3125 127.542969 75.796875 127.761719 79.261719 C 127.976562 82.722656 127.683594 86.445312 125.578125 89.199219 C 127.710938 87.691406 129.894531 86.140625 131.363281 83.976562 C 132.832031 81.816406 133.457031 78.886719 132.246094 76.570312 C 131.570312 75.28125 130.417969 74.320312 129.296875 73.390625 C 128.179688 72.460938 127.035156 71.492188 126.382812 70.191406 C 125.734375 68.890625 125.703125 67.164062 127.484375 68.890625 Z M 127.480469 68.890625 " fill-opacity="1" fill-rule="nonzero"/><path fill="#d9d9d9" d="M 124.097656 152.253906 C 117.839844 171.976562 102.164062 188.476562 82.789062 195.742188 C 86.238281 196.917969 90.070312 196.535156 93.511719 195.335938 C 96.953125 194.132812 100.066406 192.15625 103.082031 190.113281 C 108.039062 186.761719 112.84375 183.175781 117.3125 179.191406 C 120.585938 176.273438 123.703125 173.109375 126.019531 169.386719 C 127.792969 166.535156 129.082031 163.375 129.800781 160.09375 C 130.128906 158.601562 130.335938 157.007812 129.8125 155.570312 C 128.898438 153.070312 125.59375 151.785156 124.09375 152.257812 Z M 124.097656 152.253906 " fill-opacity="1" fill-rule="nonzero"/><path fill="#545454" d="M 216.132812 226.320312 C 219.183594 224.660156 220.867188 221.148438 221.175781 217.691406 C 221.480469 214.234375 220.613281 210.789062 219.640625 207.460938 C 217.648438 200.648438 216.144531 197.066406 211.542969 191.660156 C 206.945312 186.257812 198.890625 179.214844 191.84375 180.074219 C 198.375 177.664062 205.753906 177.652344 212.296875 180.03125 C 209.554688 176.332031 205.171875 174.097656 200.660156 173.167969 C 196.148438 172.242188 191.480469 172.5 186.902344 172.984375 C 192.488281 170.398438 198.503906 168.753906 204.625 168.136719 C 205.113281 167.722656 205.292969 167.671875 205.480469 167.628906 C 195.308594 161.804688 182.695312 160.75 171.550781 164.410156 C 160.402344 168.074219 150.875 176.410156 145.757812 186.96875 C 143.570312 187.679688 143.515625 187.597656 143.464844 187.515625 C 137.710938 179.917969 131.730469 172.507812 125.746094 165.097656 C 123.636719 168.394531 119.804688 173.558594 113.691406 179.671875 C 104.359375 189 98.070312 190.472656 85.117188 196.4375 C 82.625 198.578125 80.097656 200.769531 78.375 203.566406 C 76.65625 206.363281 75.847656 209.921875 77.054688 212.976562 C 78.261719 216.03125 81.886719 218.175781 84.964844 217.042969 C 84.980469 221.628906 89.542969 224.796875 93.820312 226.453125 C 108.078125 231.972656 125.113281 229.582031 137.308594 220.363281 C 126.75 230.21875 124.527344 245.832031 122.414062 260.121094 C 120.304688 274.410156 116.78125 290.125 104.953125 298.414062 C 113.933594 299.0625 123.117188 296.132812 130.0625 290.402344 C 124.507812 297.113281 125.191406 307.238281 128.886719 315.128906 C 132.578125 323.015625 138.746094 329.425781 143.921875 336.429688 C 149.097656 343.4375 153.472656 351.765625 152.632812 360.433594 C 155.828125 360.339844 158.496094 357.6875 159.585938 354.6875 C 160.675781 351.6875 160.511719 348.390625 160.253906 345.207031 C 159.511719 336.035156 158.121094 326.835938 158.972656 317.675781 C 159.824219 308.515625 163.253906 299.140625 170.429688 293.382812 C 175.640625 289.199219 182.28125 287.308594 188.179688 284.171875 C 198 278.949219 205.808594 270.046875 209.703125 259.625 C 213.597656 249.207031 213.542969 237.363281 209.558594 226.980469 C 212.507812 228.09375 215.785156 228.335938 216.132812 226.324219 Z M 216.132812 226.320312 " fill-opacity="1" fill-rule="nonzero"/><path fill="#d9d9d9" d="M 150.375 137.71875 C 163.609375 136.800781 177.121094 140.5 187.898438 148.050781 C 177.972656 149.238281 168.132812 151.082031 158.445312 153.558594 C 154.566406 160.386719 146.285156 164.425781 138.519531 163.273438 C 142.246094 166.558594 147.992188 167.316406 152.445312 165.109375 C 150.503906 167.394531 148.066406 169.261719 145.351562 170.535156 C 153.78125 165.035156 164.023438 162.367188 174.066406 163.050781 C 164.042969 165.605469 155.042969 171.976562 149.296875 180.574219 C 147.640625 183.058594 146.195312 186.054688 146.957031 188.945312 C 139.808594 184.324219 133.898438 177.800781 129.996094 170.234375 C 128.53125 167.390625 127.335938 164.003906 128.59375 161.0625 C 129.21875 159.589844 130.390625 158.425781 131.234375 157.0625 C 132.074219 155.699219 132.558594 153.894531 131.714844 152.535156 C 134.664062 156.113281 139.570312 157.972656 144.152344 157.25 C 148.738281 156.527344 152.824219 153.246094 154.53125 148.929688 C 155.113281 147.464844 155.34375 145.585938 154.199219 144.5 C 153.472656 143.808594 152.390625 143.660156 151.390625 143.644531 C 148.417969 143.59375 145.433594 144.425781 142.917969 146.015625 C 145.1875 142.058594 148.703125 138.824219 150.378906 137.71875 Z M 150.375 137.71875 " fill-opacity="1" fill-rule="nonzero"/><g mask="url(#655e87f45f)"><g transform="matrix(1, 0, 0, 1, 106, 186)"><g clip-path="url(#c34eb38f3b)"><g clip-path="url(#1c175b1bac)"><path fill="#262626" d="M 68.953125 98.964844 C 60.949219 106.667969 55.632812 117.109375 54.117188 128.113281 C 52.398438 140.554688 55.390625 153.433594 52.589844 165.679688 C 51.601562 169.996094 49.550781 174.535156 45.519531 176.355469 C 51.390625 169.386719 53.222656 159.234375 50.152344 150.648438 C 45.207031 144.207031 41.34375 135.421875 39.300781 126.222656 C 38.363281 131.191406 37.882812 136.242188 37.882812 141.296875 C 33.808594 133.773438 35.824219 124.550781 34.789062 116.058594 C 34.308594 112.085938 33.136719 108.207031 32.925781 104.210938 C 32.277344 92.066406 40.363281 81.34375 43.621094 69.625 C 42.023438 71.734375 40.875 74.183594 40.273438 76.757812 C 40.894531 71.003906 42.917969 65.410156 46.121094 60.589844 C 40.894531 64.136719 38.394531 70.484375 36.789062 76.589844 C 35.191406 82.695312 34.121094 89.125 30.65625 94.402344 C 27.507812 99.203125 22.671875 102.59375 17.957031 105.863281 C 12.789062 109.449219 6.859375 113.210938 0.671875 112.039062 C 13.574219 106.410156 23.015625 93.929688 25.117188 80.121094 C 26.664062 69.933594 24.484375 59.195312 27.78125 49.429688 C 22.007812 56.1875 18.664062 65.21875 18.808594 74.238281 C 15.109375 59.410156 20.476562 42.699219 31.46875 34.003906 C 35.644531 30.234375 41.730469 28.699219 47.191406 30.042969 C 52.652344 31.386719 57.332031 35.5625 59.285156 40.839844 C 61.984375 48.136719 59.53125 56.246094 56.667969 63.476562 C 56.390625 63.867188 56.113281 64.257812 56.074219 64.800781 C 46.605469 79.855469 42.304688 98.09375 44.046875 114.933594 C 65.058594 98.378906 78.257812 72.308594 79.160156 45.570312 C 88.511719 59.457031 90.15625 78.191406 83.609375 93.570312 C 86.75 85.226562 89.917969 76.804688 91.164062 67.976562 C 92.414062 59.148438 91.605469 49.765625 87.191406 42.023438 C 82.03125 32.976562 72.703125 27.246094 63.765625 21.894531 C 69.660156 17.605469 77.058594 15.421875 84.335938 15.835938 C 91.617188 16.25 98.71875 19.253906 104.378906 24.257812 C 101 14.011719 93.039062 5.375 83.101562 1.179688 C 89.804688 -0.976562 97.429688 0.375 103.289062 4.277344 C 109.15625 8.179688 113.265625 14.460938 115.035156 21.28125 C 116.800781 28.097656 116.316406 35.402344 114.195312 42.121094 C 109.09375 36.742188 102.636719 32.660156 95.351562 30.460938 C 105.808594 42.015625 108.058594 59.726562 102.589844 74.324219 C 97.125 88.917969 84.761719 100.332031 70.484375 106.582031 C 69.78125 106.890625 69.015625 107.191406 68.269531 107.023438 C 66.980469 106.726562 66.386719 105.105469 66.722656 103.828125 C 67.058594 102.550781 68.039062 101.5625 68.949219 98.960938 Z M 68.953125 98.964844 " fill-opacity="1" fill-rule="nonzero"/></g></g></g></g><g mask="url(#a2286688e5)"><g transform="matrix(1, 0, 0, 1, 81, 193)"><g clip-path="url(#41cf884566)"><g clip-path="url(#c79912ab31)"><path fill="#262626" d="M 4.875 2.40625 C 5.390625 1.949219 5.90625 1.496094 6.421875 1.035156 C 9.15625 2.207031 11.261719 4.757812 11.894531 7.664062 C 12.523438 10.574219 11.660156 13.765625 9.558594 16.109375 C 14.910156 19.265625 21.605469 19.464844 27.644531 17.992188 C 33.683594 16.519531 39.226562 13.535156 44.695312 10.578125 C 50.164062 7.621094 55.710938 4.640625 61.753906 3.183594 C 63.765625 2.699219 65.863281 2.386719 67.902344 2.742188 C 69.945312 3.09375 71.929688 4.199219 72.953125 6.003906 C 74.160156 8.132812 73.8125 10.890625 72.605469 13.023438 C 71.402344 15.15625 69.464844 16.777344 67.472656 18.199219 C 54.398438 27.535156 37.847656 30.304688 21.871094 31.976562 C 19.449219 32.230469 17.003906 32.464844 14.59375 32.136719 C 12.183594 31.804688 9.78125 30.855469 8.132812 29.070312 C 6.492188 27.289062 5.765625 24.460938 7.03125 22.390625 C 5.265625 20.980469 3.492188 19.507812 2.261719 17.609375 C 1.035156 15.707031 0.414062 13.289062 1.144531 11.148438 C 1.679688 9.574219 2.871094 8.320312 3.652344 6.851562 C 4.433594 5.382812 4.710938 3.378906 4.875 2.40625 Z M 4.875 2.40625 " fill-opacity="1" fill-rule="nonzero"/></g></g></g></g><g mask="url(#07d42b8c9b)"><g transform="matrix(1, 0, 0, 1, 165, 21)"><g clip-path="url(#a651865399)"><g clip-path="url(#a56ed503fe)"><path fill="#262626" d="M 55.878906 97.949219 C 44.773438 91.65625 38.054688 78.386719 39.546875 65.707031 C 39.777344 66.234375 40.011719 66.757812 40.234375 67.375 C 38.546875 58.671875 41.363281 49.757812 41.335938 40.894531 C 41.3125 34.117188 39.625 27.464844 38.898438 20.726562 C 38.167969 13.984375 38.515625 6.773438 42.144531 1.046875 C 37.601562 2.917969 33.839844 6.605469 31.890625 11.113281 C 30.449219 14.441406 29.960938 18.152344 28.246094 21.351562 C 25.714844 26.054688 20.457031 29.160156 15.117188 29.101562 C 15.921875 33.511719 20.515625 36.863281 24.957031 36.28125 C 22.320312 37.40625 19.195312 37.320312 16.621094 36.058594 C 15.367188 35.4375 13.628906 34.648438 12.792969 35.773438 C 12.4375 36.246094 12.445312 36.890625 12.507812 37.480469 C 13.136719 43.484375 18.691406 48.566406 24.808594 48.421875 C 20.316406 50.875 14.554688 50.824219 10.109375 48.28125 C 9.578125 51.066406 10.289062 54.066406 12.019531 56.3125 C 13.746094 58.558594 16.457031 60.019531 19.285156 60.222656 C 17.179688 60.839844 15.039062 61.46875 12.839844 61.46875 C 10.640625 61.46875 8.347656 60.75 6.921875 59.074219 C 5.054688 56.894531 5.085938 53.675781 5.667969 50.863281 C 6.25 48.054688 7.292969 45.273438 7.097656 42.410156 C 0.917969 47.832031 -1.484375 57.164062 1.316406 64.894531 C 4.117188 72.625 11.9375 78.257812 20.15625 78.460938 L 20.722656 79.464844 C 20.722656 79.464844 21.722656 79.628906 22.230469 79.625 C 24.988281 79.5 27.746094 79.371094 30.507812 79.242188 C 31.171875 79.214844 32.070312 79.371094 32.117188 80.039062 C 32.117188 80.039062 32.152344 80.132812 32.519531 81.324219 C 33.550781 83.371094 34.574219 85.414062 36.160156 87.222656 C 39.3125 93.21875 43.734375 98.542969 49.042969 102.746094 C 50.835938 104.164062 52.777344 105.484375 54.988281 106.070312 C 55.832031 106.292969 56.816406 106.375 57.492188 105.832031 C 58.144531 105.308594 58.296875 104.34375 58.082031 103.539062 C 57.863281 102.734375 57.351562 102.042969 55.875 97.949219 Z M 55.878906 97.949219 " fill-opacity="1" fill-rule="nonzero"/></g></g></g></g><g mask="url(#bd75006b62)"><g transform="matrix(1, 0, 0, 1, 121, 132)"><g clip-path="url(#b1de9d9b55)"><g clip-path="url(#e7e3daf77b)"><path fill="#262626" d="M 5.117188 21.242188 C 3.121094 20.160156 1.566406 18.292969 0.859375 16.136719 C 0.148438 13.976562 0.296875 11.554688 1.289062 9.507812 C 1.253906 10.78125 1.519531 12.0625 2.050781 13.21875 C 2.222656 13.589844 2.453125 13.980469 2.84375 14.121094 C 3.648438 14.410156 4.316406 13.484375 4.726562 12.734375 C 6.339844 9.777344 8.90625 7.347656 11.945312 5.894531 C 10.953125 7.210938 10.273438 8.757812 9.976562 10.378906 C 9.875 10.925781 9.828125 11.539062 10.144531 12.003906 C 10.488281 12.511719 11.175781 12.683594 11.777344 12.578125 C 12.378906 12.476562 12.914062 12.144531 13.433594 11.824219 C 17.507812 9.261719 21.480469 6.515625 25.769531 4.328125 C 30.058594 2.144531 34.722656 0.519531 39.535156 0.386719 C 35.199219 3.066406 30.84375 5.765625 26.992188 9.101562 C 22.054688 13.371094 17.839844 18.753906 11.863281 21.382812 C 10.621094 21.929688 9.28125 22.351562 7.929688 22.253906 C 6.578125 22.15625 5.207031 21.449219 5.117188 21.25 Z M 5.117188 21.242188 " fill-opacity="1" fill-rule="nonzero"/></g></g></g></g><g mask="url(#2148994987)"><g transform="matrix(1, 0, 0, 1, 102, 142)"><g clip-path="url(#47b0d82a5a)"><g clip-path="url(#ad46e0ab4d)"><path fill="#262626" d="M 2.851562 9.78125 C 2.441406 6.714844 1.898438 3.667969 1.222656 0.648438 C 1.78125 1.273438 2.339844 1.898438 2.902344 2.519531 C 3.554688 3.253906 4.394531 4.054688 5.363281 3.882812 C 6 3.769531 6.492188 3.238281 6.742188 2.640625 C 6.988281 2.046875 7.03125 1.386719 7.070312 0.738281 C 9.117188 4.34375 8.65625 9.214844 5.964844 12.375 C 5.546875 12.863281 4.945312 13.347656 4.332031 13.160156 C 3.882812 13.019531 3.617188 12.5625 3.417969 12.128906 C 2.753906 10.707031 2.292969 9.183594 2.851562 9.78125 Z M 2.851562 9.78125 " fill-opacity="1" fill-rule="nonzero"/></g></g></g></g><path fill="#262626" d="M 77.148438 189.570312 L 75.648438 187.65625 L 73.847656 189.472656 L 71.675781 187.3125 L 73.96875 185.511719 C 75.546875 184.273438 77.167969 183.042969 78.730469 181.851562 C 83.046875 178.574219 87.511719 175.183594 91.398438 171.390625 C 96.898438 166.027344 100.6875 160.375 102.675781 154.570312 C 95.851562 140.375 96.703125 123.421875 104.882812 109.679688 C 86.140625 82.972656 81.324219 47.691406 92.355469 17.15625 L 93.722656 13.375 L 96.589844 16.199219 C 109.457031 28.859375 119.949219 44.164062 127.179688 60.742188 C 127.589844 60.28125 128.042969 59.859375 128.535156 59.480469 L 132.828125 56.167969 L 132.683594 61.589844 C 132.523438 67.664062 133.878906 73.746094 136.609375 79.175781 L 132 81.488281 C 130.882812 79.261719 129.964844 76.9375 129.257812 74.550781 L 128.988281 79.441406 L 124.667969 68.210938 C 118.21875 51.449219 108.3125 35.839844 95.890625 22.832031 C 87.019531 51.390625 92.300781 83.683594 110.0625 108.0625 L 111.105469 109.496094 L 110.144531 110.980469 C 102.027344 123.558594 101.082031 140.128906 107.746094 153.203125 L 108.222656 154.132812 L 107.914062 155.132812 C 105.773438 162.109375 101.429688 168.820312 95 175.089844 C 90.882812 179.101562 86.292969 182.589844 81.851562 185.964844 C 80.304688 187.144531 78.699219 188.363281 77.152344 189.574219 Z M 77.148438 189.570312 " fill-opacity="1" fill-rule="nonzero"/><path fill="#262626" d="M 149.144531 368.730469 L 149.859375 363.179688 C 150.761719 356.195312 148.246094 348.484375 142.175781 339.609375 C 140.519531 337.191406 138.699219 334.78125 136.9375 332.453125 C 133.242188 327.570312 129.421875 322.519531 126.664062 316.808594 C 123.320312 309.886719 122.199219 302.816406 123.296875 296.628906 C 116.945312 300.066406 109.574219 301.664062 102.394531 301.007812 L 92.851562 300.136719 L 101.546875 296.101562 C 105.613281 294.214844 113.035156 289.050781 117.019531 275.691406 C 118.863281 269.503906 119.640625 262.855469 120.394531 256.425781 C 120.722656 253.621094 121.0625 250.71875 121.488281 247.859375 C 122.351562 242.097656 123.875 234.398438 127.53125 227.371094 C 124.550781 228.597656 121.464844 229.839844 118.269531 230.84375 C 110.890625 233.15625 104.527344 233.597656 98.816406 232.203125 C 92.0625 230.546875 86.636719 226.128906 84.277344 220.488281 C 80.941406 219.675781 77.96875 217.386719 76.40625 214.378906 L 76.378906 214.363281 C 73.375 212.433594 70.269531 210.433594 67.738281 207.601562 C 64.445312 203.921875 62.902344 199.457031 63.496094 195.359375 C 64.304688 189.804688 69.332031 185.25 74.941406 184.992188 L 75.179688 190.144531 C 72.007812 190.289062 69.058594 192.960938 68.601562 196.101562 C 68.230469 198.648438 69.34375 201.660156 71.582031 204.160156 C 73.648438 206.476562 76.457031 208.277344 79.171875 210.027344 L 80.488281 210.875 L 80.796875 211.609375 C 81.710938 213.769531 84.019531 215.417969 86.414062 215.632812 L 88.144531 215.785156 L 88.652344 217.445312 C 90.058594 222.015625 94.527344 225.84375 100.039062 227.195312 C 104.8125 228.363281 110.265625 227.949219 116.722656 225.925781 C 119.976562 224.90625 123.199219 223.578125 126.316406 222.296875 C 128.632812 221.34375 131.035156 220.355469 133.382812 219.527344 L 142.523438 216.289062 L 136.199219 223.636719 C 133.144531 227.1875 128.820312 233.640625 126.585938 248.621094 C 126.171875 251.398438 125.835938 254.261719 125.511719 257.03125 C 124.734375 263.675781 123.929688 270.546875 121.957031 277.164062 C 119.328125 285.980469 115.28125 291.730469 111.394531 295.457031 C 117.164062 294.371094 122.648438 291.703125 126.96875 287.753906 L 141.992188 274.003906 L 130.867188 291.066406 C 126.246094 298.15625 128.0625 307.851562 131.308594 314.566406 C 133.84375 319.816406 137.34375 324.445312 141.046875 329.347656 C 142.84375 331.726562 144.703125 334.183594 146.429688 336.703125 C 151.585938 344.242188 154.445312 351.160156 155.0625 357.675781 C 158.199219 353.824219 159.800781 348.710938 159.207031 343.761719 L 164.324219 343.132812 C 164.488281 344.429688 164.773438 345.714844 165.167969 346.964844 C 172.167969 328.628906 186.195312 312.820312 203.648438 303.902344 L 208.136719 301.609375 L 207.371094 306.589844 C 206.75 310.621094 206.738281 314.757812 207.328125 318.800781 C 217.535156 301.730469 229.796875 286.398438 243.847656 273.152344 L 256.300781 261.417969 L 247.859375 276.304688 C 244.769531 281.746094 242.761719 287.695312 241.902344 293.839844 C 246.09375 288.777344 250.835938 284.203125 255.46875 279.734375 C 261.917969 273.515625 268.582031 267.089844 273.414062 259.441406 C 278.605469 251.21875 280.824219 242.488281 279.660156 234.851562 L 278.484375 227.15625 L 284.023438 232.628906 C 285.699219 234.289062 286.972656 236.359375 287.742188 238.597656 C 292.847656 232.699219 296.308594 225.269531 297.445312 217.59375 C 298.8125 208.359375 296.921875 198.488281 292.132812 189.796875 L 289.535156 185.085938 L 294.832031 186.011719 C 298.167969 186.59375 301.578125 186.484375 304.851562 185.707031 C 302.25 181.214844 300.648438 176.253906 299.230469 171.488281 L 298.773438 169.945312 C 297.289062 164.910156 295.75 159.703125 293.167969 155.234375 C 290.152344 150.015625 285.828125 146.390625 281.304688 145.292969 L 282.523438 140.28125 C 288.496094 141.734375 293.867188 146.128906 297.636719 152.65625 C 300.519531 157.65625 302.148438 163.160156 303.71875 168.484375 L 304.175781 170.019531 C 305.789062 175.433594 307.640625 181.101562 310.953125 185.644531 L 312.945312 188.375 L 309.789062 189.578125 C 306.25 190.921875 302.503906 191.589844 298.738281 191.539062 C 302.507812 200.121094 303.859375 209.488281 302.550781 218.351562 C 300.980469 228.976562 295.71875 238.785156 287.738281 245.972656 L 283.484375 249.800781 C 282.25 253.96875 280.335938 258.15625 277.78125 262.203125 C 272.613281 270.375 265.722656 277.019531 259.0625 283.445312 C 252.578125 289.699219 245.875 296.15625 241.058594 303.695312 L 236.574219 310.710938 L 236.308594 302.386719 C 236.132812 296.859375 236.800781 291.367188 238.261719 286.089844 C 226.886719 298.289062 216.914062 312.019531 208.523438 327.046875 L 205.589844 332.300781 L 203.8125 326.550781 C 202.242188 321.488281 201.558594 316.136719 201.785156 310.832031 C 185.691406 320.484375 173.257812 336.5 168.078125 354.515625 L 166.535156 359.886719 L 163.449219 355.226562 C 163.25 354.929688 163.0625 354.625 162.875 354.316406 C 161.105469 358.90625 157.960938 362.972656 153.828125 365.675781 L 149.144531 368.742188 Z M 149.144531 368.730469 " fill-opacity="1" fill-rule="nonzero"/><path fill="#262626" d="M 290.261719 146.746094 C 288.636719 146.746094 287.019531 146.613281 285.449219 146.335938 L 286.339844 141.253906 C 290.875 142.050781 295.808594 141.421875 300.246094 139.578125 C 294 136.625 288.410156 132.128906 284.699219 126.941406 L 283.089844 124.695312 L 285.4375 123.25 C 289.84375 120.527344 293.675781 116.816406 296.59375 112.507812 C 281.417969 115.726562 265.035156 112.1875 252.550781 102.707031 L 241.941406 94.652344 L 254.792969 98.167969 C 259.320312 99.40625 264.152344 99.28125 268.601562 97.878906 C 265.304688 95.84375 262.191406 93.519531 259.308594 90.925781 C 257.996094 89.742188 256.734375 88.507812 255.507812 87.308594 C 253.226562 85.078125 251.070312 82.964844 248.640625 81.199219 C 242.046875 76.398438 233.324219 74.398438 225.296875 75.847656 L 224.382812 70.773438 C 233.765625 69.074219 243.96875 71.417969 251.675781 77.03125 C 254.40625 79.019531 256.800781 81.363281 259.117188 83.625 C 260.300781 84.785156 261.527344 85.984375 262.757812 87.09375 C 266.617188 90.570312 270.925781 93.527344 275.554688 95.875 L 279.863281 98.0625 L 275.648438 100.421875 C 272.246094 102.328125 268.484375 103.523438 264.636719 103.976562 C 275.96875 109.1875 289.183594 110.019531 301.03125 105.9375 L 306.726562 103.976562 L 304.214844 109.449219 C 301.207031 116.007812 296.410156 121.808594 290.542969 126.035156 C 294.699219 130.835938 300.710938 134.75 307.101562 136.734375 L 312.183594 138.316406 L 307.792969 141.324219 C 302.660156 144.835938 296.371094 146.746094 290.261719 146.746094 Z M 290.261719 146.746094 " fill-opacity="1" fill-rule="nonzero"/><path fill="#262626" d="M 220.929688 125.917969 C 217.164062 120.34375 215.515625 112.8125 216.15625 104.136719 C 216.515625 99.308594 217.480469 94.558594 218.417969 89.96875 C 218.871094 87.746094 219.339844 85.449219 219.726562 83.195312 C 223.558594 60.855469 220.300781 37.285156 210.304688 14.875 C 199.753906 20.265625 189.90625 27.734375 181.707031 36.597656 C 172.929688 46.085938 165.972656 57.238281 161.59375 68.839844 L 161.121094 70.085938 L 159.828125 70.421875 C 150.5625 72.824219 141.730469 77.277344 134.296875 83.304688 L 131.050781 79.296875 C 138.710938 73.089844 147.742188 68.433594 157.246094 65.777344 C 161.878906 54 169.007812 42.726562 177.921875 33.089844 C 187.167969 23.097656 198.410156 14.785156 210.433594 9.054688 L 212.773438 7.941406 L 213.875 10.289062 C 225.171875 34.367188 228.953125 59.878906 224.800781 84.066406 C 224.402344 86.394531 223.925781 88.730469 223.464844 90.992188 C 222.515625 95.628906 221.625 100.011719 221.292969 104.511719 C 220.90625 109.75 221.265625 117.210938 225.199219 123.03125 L 220.921875 125.914062 Z M 220.929688 125.917969 " fill-opacity="1" fill-rule="nonzero"/><path fill="#262626" d="M 133.898438 223.097656 C 131.785156 226.488281 129.867188 230.003906 128.160156 233.617188 C 129.164062 232.09375 130.167969 230.574219 131.175781 229.050781 C 129.808594 232.078125 128.445312 235.105469 127.078125 238.136719 C 128.574219 234.5 130.164062 230.84375 132.601562 227.761719 C 135.042969 224.679688 138.464844 222.191406 142.359375 221.671875 C 146.257812 221.15625 150.574219 222.980469 152.253906 226.535156 C 150.425781 225.972656 148.445312 226.722656 146.8125 227.71875 C 141.535156 230.945312 138.1875 236.746094 136.839844 242.785156 C 135.492188 248.824219 135.933594 255.125 136.855469 261.238281 C 136.359375 256.34375 138.875 251.605469 142.070312 247.867188 C 145.269531 244.128906 149.1875 241.058594 152.359375 237.296875 C 155.527344 233.535156 157.976562 228.75 157.378906 223.867188 C 161.097656 229.324219 161.714844 236.75 158.957031 242.75 C 160.839844 241.332031 162.335938 239.40625 163.246094 237.234375 C 162.175781 244.355469 158.203125 250.640625 155.175781 257.179688 C 149.828125 268.738281 147.34375 281.609375 148.3125 294.347656 C 148.304688 285.550781 151.941406 277.152344 156.300781 269.507812 C 160.660156 261.867188 165.820312 254.648438 169.335938 246.582031 C 172.851562 238.515625 174.625 229.25 171.839844 220.902344 C 170.824219 217.855469 169.128906 214.910156 166.453125 213.140625 C 163.597656 211.253906 159.988281 210.933594 156.574219 211.128906 C 143.996094 211.855469 132.699219 218.746094 122.210938 225.726562 C 126.511719 224.449219 130.808594 223.175781 133.898438 223.089844 Z M 133.898438 223.097656 " fill-opacity="1" fill-rule="nonzero"/><path fill="#262626" d="M 162.253906 349.367188 C 160.863281 354.863281 157.652344 359.882812 153.242188 363.445312 C 157.683594 354.101562 159.324219 343.445312 157.902344 333.199219 C 157.089844 327.339844 155.300781 321.539062 155.691406 315.640625 C 156.515625 303.324219 166.328125 293.859375 173.304688 283.671875 C 179.882812 274.070312 184.238281 262.957031 185.945312 251.441406 C 189.261719 264.074219 185.6875 278.296875 176.800781 287.867188 C 192.996094 282.667969 205.1875 266.828125 206.070312 249.835938 C 206.949219 232.84375 196.464844 215.832031 180.890625 208.984375 C 188.445312 207.453125 196.5625 208.914062 203.109375 212.988281 C 209.65625 217.058594 214.554688 223.695312 216.519531 231.152344 C 219.441406 242.246094 215.882812 254.136719 210.167969 264.078125 C 204.457031 274.007812 196.574219 282.675781 187.234375 289.300781 C 181.828125 293.132812 175.902344 296.324219 171.195312 300.980469 C 160.425781 311.625 157.832031 328.867188 162.625 343.230469 C 167.09375 332.535156 174.53125 323.105469 183.890625 316.269531 C 180.625 321.871094 177.355469 327.472656 173.519531 334.214844 C 172.273438 338.339844 171.023438 342.464844 169.773438 346.59375 C 169.410156 347.789062 169 349.0625 168.015625 349.839844 C 166.617188 350.9375 164.621094 350.636719 162.878906 350.277344 C 162.960938 349.90625 163.042969 349.539062 162.261719 349.359375 Z M 162.253906 349.367188 " fill-opacity="1" fill-rule="nonzero"/><path fill="#262626" d="M 202.851562 216.277344 C 196.726562 211.082031 188.460938 208.492188 180.464844 209.253906 C 187.375 206.273438 195.445312 206.105469 202.46875 208.792969 C 209.492188 211.484375 215.390625 217 218.542969 223.828125 C 220.964844 212.519531 217.382812 200.472656 210.6875 191.039062 C 217.351562 195.726562 222.425781 202.625 224.925781 210.375 C 229.929688 214.273438 233.242188 220.277344 233.867188 226.589844 C 237.515625 212.785156 237.316406 197.992188 233.300781 184.289062 C 240.351562 186.972656 246.554688 191.839844 250.238281 199.25 C 250.363281 193.640625 250.488281 187.996094 249.628906 182.453125 C 248.765625 176.90625 246.859375 171.410156 243.316406 167.0625 C 251.503906 168.96875 259.089844 173.371094 264.804688 179.53125 C 263.257812 172.5 258.085938 166.902344 253.015625 161.789062 C 248.3125 157.042969 243.492188 152.363281 238.03125 148.503906 C 232.574219 144.644531 226.425781 141.609375 219.839844 140.480469 C 222.3125 139.78125 224.945312 139.660156 227.824219 138.691406 C 221.097656 137.144531 215.910156 131.859375 211.726562 126.375 C 207.546875 120.886719 203.855469 114.851562 198.386719 110.644531 C 187.871094 102.558594 172.371094 102.480469 162.996094 93.09375 C 156.605469 86.699219 154.429688 76.445312 157.675781 68.003906 C 159.527344 68.050781 161.382812 67.195312 162.554688 65.757812 C 159.011719 71.898438 158.84375 79.855469 162.441406 86.207031 C 160.996094 80.707031 161.710938 74.808594 163.535156 69.421875 C 165.363281 64.039062 168.253906 59.082031 171.234375 54.238281 C 180.710938 38.84375 191.675781 23.757812 206.925781 14.046875 C 192.074219 27.683594 180.175781 44.519531 172.289062 63.078125 C 170.089844 68.25 168.183594 73.617188 167.585938 79.203125 C 167.316406 81.710938 167.324219 84.324219 168.28125 86.652344 C 169.160156 88.796875 170.777344 90.554688 172.535156 92.058594 C 175.621094 94.703125 179.355469 96.753906 183.394531 97.15625 C 187.4375 97.558594 191.785156 96.105469 194.234375 92.863281 C 187.730469 94.429688 180.488281 92.453125 175.980469 87.449219 C 184.800781 89.15625 194.453125 85.207031 199.550781 77.8125 C 193.425781 81.171875 185.082031 79.78125 180.375 74.613281 C 184.902344 76.488281 190.292969 74.5 193.773438 71.054688 C 197.25 67.609375 199.234375 62.96875 201.101562 58.4375 C 197.535156 63.71875 189.78125 65.628906 184.167969 62.609375 C 188.121094 62.75 191.949219 60.976562 195.019531 58.492188 C 198.09375 56.003906 200.519531 52.828125 202.917969 49.683594 C 199 53.898438 192.285156 55.210938 187.070312 52.78125 C 191.4375 53.628906 195.601562 50.074219 197.386719 45.996094 C 199.167969 41.921875 199.300781 37.34375 200.222656 32.988281 C 201.140625 28.636719 203.21875 24.074219 207.28125 22.25 C 206.207031 25.695312 206.722656 29.449219 207.796875 32.890625 C 208.871094 36.332031 210.476562 39.585938 211.632812 43 C 213.847656 49.539062 214.355469 56.652344 213.097656 63.4375 C 211.976562 69.453125 209.515625 75.144531 208.144531 81.113281 C 206.769531 87.074219 206.605469 93.710938 209.808594 98.929688 C 205.191406 95.726562 202.625 89.816406 203.429688 84.257812 C 201.253906 91.832031 201.453125 100.164062 204.511719 107.429688 C 207.574219 114.695312 213.585938 120.777344 220.3125 123.539062 C 217.796875 108.695312 218.621094 93.296875 222.710938 78.800781 C 223.113281 77.375 223.582031 75.890625 224.652344 74.863281 C 225.929688 73.625 227.824219 73.28125 229.601562 73.226562 C 234.175781 73.09375 238.785156 74.550781 242.445312 77.300781 C 240.3125 76.992188 238.175781 76.710938 236.039062 76.453125 C 235.300781 76.367188 234.441406 76.320312 233.921875 76.855469 C 233.25 77.550781 233.605469 78.703125 234.085938 79.542969 C 235.46875 81.984375 237.570312 84.015625 240.054688 85.3125 C 238.054688 85.542969 235.976562 84.917969 234.433594 83.628906 C 236.027344 90.667969 237.628906 97.734375 240.179688 104.488281 C 242.730469 111.238281 246.28125 117.714844 251.339844 122.863281 C 247.558594 121.207031 243.742188 119.535156 240.390625 117.128906 C 237.039062 114.71875 234.132812 111.488281 232.847656 107.5625 C 233.695312 112.882812 234.550781 118.222656 236.214844 123.34375 C 237.878906 128.460938 240.410156 133.394531 244.210938 137.203125 C 238.796875 135.78125 233.746094 133.007812 230.207031 129.117188 C 235.253906 138.414062 245.234375 143.726562 252.933594 150.984375 C 264.265625 161.671875 270.75 177.308594 270.300781 192.878906 C 266.949219 185.605469 259.839844 180.921875 253.074219 176.625 C 258.59375 181.628906 261.492188 189.378906 260.613281 196.78125 C 260.097656 192.453125 257.648438 188.394531 254.0625 185.917969 C 257.445312 194.167969 256.765625 203.972656 252.28125 211.675781 C 249.902344 204.910156 246.335938 198.5625 241.796875 193.011719 C 245.113281 200.605469 245.617188 209.398438 243.191406 217.324219 C 243.074219 213.972656 242.265625 210.652344 240.597656 208.21875 C 241.292969 221.117188 237.503906 234.207031 230.035156 244.742188 C 231.90625 234.777344 229.703125 224.101562 224.035156 215.695312 C 224.144531 223.867188 220.824219 231.640625 217.5625 239.132812 C 218.515625 233.160156 215.972656 226.746094 211.175781 223.058594 C 210.535156 222.566406 209.691406 222.097656 208.960938 222.433594 C 207.640625 223.03125 208.28125 225.246094 207.257812 226.269531 C 206.535156 226.992188 205.242188 226.765625 204.496094 226.070312 C 203.75 225.375 203.414062 224.359375 203.105469 223.382812 C 202.394531 221.136719 201.699219 218.609375 202.859375 216.289062 Z M 202.851562 216.277344 " fill-opacity="1" fill-rule="nonzero"/><path fill="#262626" d="M 234.707031 286.871094 C 228.941406 293.140625 223.175781 299.410156 217.414062 305.683594 C 222.511719 296.769531 229.042969 288.773438 234.808594 280.273438 C 240.570312 271.777344 245.65625 262.523438 247.308594 252.390625 C 247.769531 266.816406 240.710938 280.347656 234.710938 286.871094 Z M 234.707031 286.871094 " fill-opacity="1" fill-rule="nonzero"/><path fill="#262626" d="M 283.53125 238.324219 C 280.105469 255.894531 269.015625 271.828125 253.730469 281.144531 C 264.398438 270.378906 271.902344 256.511719 275.082031 241.695312 C 278.257812 226.875 277.101562 211.148438 271.785156 196.957031 C 280.0625 205.378906 283.992188 217.300781 284.972656 229.066406 C 285.480469 235.164062 285.105469 241.792969 283.535156 238.328125 Z M 283.53125 238.324219 " fill-opacity="1" fill-rule="nonzero"/><path fill="#262626" d="M 283.746094 143.289062 C 289.867188 145.9375 294.597656 151.601562 296.117188 158.09375 C 294.050781 154.074219 290.789062 150.683594 286.855469 148.453125 C 283.917969 146.792969 280.660156 145.789062 277.679688 144.207031 C 271.871094 141.132812 267.265625 135.835938 265.023438 129.65625 C 270.8125 135.699219 279.289062 138.1875 287.347656 140.4375 C 285.503906 139.46875 283.917969 138.007812 282.804688 136.242188 C 285.484375 138.484375 288.972656 139.578125 292.449219 139.921875 C 295.925781 140.269531 299.429688 139.921875 302.902344 139.570312 C 297.710938 142.550781 291.472656 143.660156 283.742188 143.285156 Z M 283.746094 143.289062 " fill-opacity="1" fill-rule="nonzero"/><path fill="#262626" d="M 288.335938 128.636719 C 285.1875 125.707031 280.964844 123.960938 276.667969 123.808594 C 282.472656 123.324219 288.378906 121.777344 292.910156 118.121094 C 292.207031 119.203125 291.132812 119.984375 290.082031 120.738281 C 289.035156 121.492188 287.960938 122.273438 287.261719 123.359375 C 286.5625 124.445312 286.316406 125.921875 288.335938 128.636719 Z M 288.335938 128.636719 " fill-opacity="1" fill-rule="nonzero"/><path fill="#262626" d="M 74.835938 208.546875 C 72.679688 206.59375 71.203125 203.835938 71.042969 200.929688 C 70.886719 198.027344 72.144531 195.019531 74.484375 193.292969 C 76.824219 191.566406 80.222656 191.296875 82.683594 192.851562 C 80.566406 190.578125 77.207031 189.542969 74.175781 190.234375 C 74.566406 190.15625 74.957031 190.070312 75.347656 189.992188 C 74.359375 189.941406 73.359375 190.132812 72.460938 190.550781 C 73.179688 190.300781 73.949219 190.214844 74.707031 190.296875 C 73.710938 190.097656 72.667969 190.15625 71.699219 190.457031 C 72.289062 190.324219 72.839844 190.015625 73.261719 189.585938 C 71.738281 189.808594 70.242188 190.242188 68.832031 190.863281 C 70.964844 188.269531 73.859375 186.304688 77.09375 185.308594 C 80.722656 182.804688 84.351562 180.296875 87.976562 177.796875 C 85.6875 181.160156 82.96875 184.230469 79.902344 186.910156 C 81.386719 186.976562 82.792969 187.667969 83.9375 188.613281 C 85.078125 189.5625 85.984375 190.761719 86.816406 191.992188 C 88.125 193.925781 89.285156 195.992188 89.925781 198.234375 C 90.566406 200.480469 90.660156 202.929688 89.859375 205.125 C 89.0625 207.320312 87.300781 209.214844 85.027344 209.890625 C 89.261719 213.96875 95.289062 215.855469 101.167969 215.847656 C 107.042969 215.835938 112.804688 214.0625 118.152344 211.625 C 123.5 209.183594 128.511719 206.074219 133.632812 203.191406 C 137.71875 200.894531 142.125 198.679688 146.808594 198.824219 C 147.988281 198.863281 149.269531 199.105469 150.027344 200.007812 C 150.792969 200.921875 150.796875 202.289062 150.324219 203.382812 C 149.851562 204.472656 148.976562 205.332031 148.085938 206.117188 C 139.425781 213.730469 127.574219 216.316406 116.277344 218.636719 C 109.089844 220.113281 101.617188 221.589844 94.480469 219.875 C 93.285156 219.589844 92.089844 219.210938 90.867188 219.261719 C 89.640625 219.308594 88.34375 219.890625 87.847656 221.015625 C 88.246094 219.90625 87.363281 218.667969 86.257812 218.253906 C 85.152344 217.835938 83.925781 218.015625 82.765625 218.199219 C 84.09375 218.867188 85.578125 217.085938 85.25 215.632812 C 84.917969 214.179688 83.582031 213.214844 82.335938 212.394531 C 81.089844 211.574219 79.742188 210.644531 79.355469 209.207031 C 77.800781 210.179688 75.722656 210.242188 74.109375 209.371094 C 72.492188 208.503906 71.410156 206.726562 74.835938 208.542969 Z M 74.835938 208.546875 " fill-opacity="1" fill-rule="nonzero"/><path fill="#262626" d="M 77.675781 204.992188 C 76.796875 205.25 75.921875 205.644531 75.3125 206.335938 C 74.707031 207.027344 74.429688 208.066406 74.832031 208.890625 C 75.09375 209.441406 75.617188 209.828125 76.160156 210.109375 C 77.46875 210.789062 79.027344 210.96875 80.453125 210.605469 C 80.910156 210.488281 81.378906 210.296875 81.640625 209.910156 C 82.070312 209.28125 81.78125 208.414062 81.363281 207.773438 C 80.660156 206.707031 79.621094 205.867188 78.433594 205.40625 C 78.101562 205.273438 77.742188 205.175781 77.386719 205.222656 C 77.035156 205.269531 76.683594 205.496094 77.675781 204.992188 Z M 77.675781 204.992188 " fill-opacity="1" fill-rule="nonzero"/><path fill="#262626" d="M 122.265625 147.648438 C 122.183594 150.316406 125.074219 152.3125 127.738281 152.238281 C 130.40625 152.160156 132.789062 150.621094 134.921875 149.019531 C 140.09375 145.136719 144.746094 140.582031 150.027344 136.851562 C 155.3125 133.121094 161.453125 130.195312 167.921875 130.195312 C 162.269531 131.964844 157.207031 135.261719 152.59375 138.976562 C 147.976562 142.691406 143.738281 146.847656 139.195312 150.652344 C 137.113281 152.402344 134.910156 154.109375 132.328125 154.976562 C 129.746094 155.84375 126.695312 155.746094 124.539062 154.089844 C 122.378906 152.433594 121.558594 149.007812 122.265625 147.652344 Z M 122.265625 147.648438 " fill-opacity="1" fill-rule="nonzero"/><path fill="#262626" d="M 138.441406 150.160156 C 137.84375 151.496094 138.890625 153.164062 140.296875 153.546875 C 141.710938 153.933594 143.242188 153.285156 144.28125 152.253906 C 145.320312 151.226562 145.960938 149.871094 146.558594 148.539062 C 145.242188 148.800781 143.933594 149.0625 142.617188 149.320312 C 145.019531 147.21875 148.222656 146.0625 151.410156 146.140625 C 151.03125 150.019531 148.582031 153.78125 144.9375 155.167969 C 141.292969 156.558594 136.625 155.117188 134.847656 151.644531 C 132.75 152.941406 130.375 153.796875 127.933594 154.128906 C 131.039062 158.914062 137.628906 160.628906 143.132812 159.128906 C 148.632812 157.628906 153.09375 153.480469 156.226562 148.8125 C 166.398438 146.019531 177.273438 145.789062 187.554688 148.152344 C 184.546875 145.355469 180.316406 144.363281 176.265625 143.644531 C 170.46875 142.617188 164.609375 141.933594 158.730469 141.597656 C 153.972656 141.328125 148.90625 141.363281 145.097656 143.824219 C 143.261719 145.433594 140.191406 146.214844 138.4375 150.160156 Z M 138.441406 150.160156 " fill-opacity="1" fill-rule="nonzero"/><path fill="#262626" d="M 132.792969 155.761719 C 131.699219 162.089844 135.335938 168.933594 141.191406 171.570312 C 137.769531 171.714844 134.304688 170.496094 131.730469 168.234375 C 134.339844 174.667969 139.183594 180.164062 145.234375 183.5625 C 147.652344 177.617188 152.222656 172.671875 157.660156 169.257812 C 163.097656 165.84375 169.367188 163.890625 175.722656 162.988281 C 168.789062 165.207031 162.289062 168.964844 157.28125 174.246094 C 152.277344 179.53125 148.824219 186.375 148.058594 193.613281 C 148.058594 193.613281 122.828125 168.90625 123.386719 168.710938 C 124.910156 164.851562 126.289062 160.933594 127.519531 156.96875 C 127.941406 155.601562 128.324219 154.023438 127.550781 152.824219 C 129.253906 154.523438 131.78125 155.359375 132.789062 155.757812 Z M 132.792969 155.761719 " fill-opacity="1" fill-rule="nonzero"/><path fill="#262626" d="M 133.46875 79.152344 C 123.859375 88.839844 115.042969 99.3125 107.144531 110.441406 C 107.386719 110.097656 107.628906 109.753906 107.871094 109.410156 C 107.96875 111.132812 107.332031 112.886719 106.144531 114.144531 C 107.054688 112.957031 107.964844 111.765625 108.875 110.578125 C 107.230469 113.738281 105.589844 116.894531 103.945312 120.054688 C 108.410156 113.417969 112.882812 106.78125 117.347656 100.148438 C 116.445312 103.347656 115.539062 106.550781 114.632812 109.75 C 118.464844 100.390625 124.917969 92.246094 132.542969 85.605469 C 140.175781 78.96875 148.964844 73.777344 158.070312 69.378906 C 150.277344 69.914062 141.332031 71.226562 133.464844 79.152344 Z M 133.46875 79.152344 " fill-opacity="1" fill-rule="nonzero"/><path fill="#262626" d="M 118.679688 98.253906 C 111.464844 105.582031 106.375 114.980469 104.179688 125.027344 C 107.210938 116.457031 111.902344 108.480469 117.917969 101.667969 C 117.738281 102.007812 117.558594 102.351562 117.375 102.691406 C 117.648438 100.660156 118.371094 98.691406 118.675781 98.253906 Z M 118.679688 98.253906 " fill-opacity="1" fill-rule="nonzero"/><path fill="#262626" d="M 110.1875 67.578125 C 110.1875 67.578125 95.585938 28.097656 95.621094 28.179688 C 92.488281 41.0625 93.886719 54.601562 96.019531 67.6875 C 97.144531 74.601562 98.476562 81.519531 100.835938 88.113281 C 103.195312 94.707031 106.640625 101.003906 111.550781 106 C 114.230469 101.902344 117.144531 97.957031 120.269531 94.183594 C 117.496094 94.445312 114.667969 94.042969 112.078125 93.023438 C 115.726562 92.355469 119.097656 90.289062 121.34375 87.339844 C 117.203125 89.007812 112.15625 88.121094 108.824219 85.15625 C 111.308594 85.207031 113.804688 84.636719 116.019531 83.503906 C 110.964844 83.09375 106.640625 79.40625 104.105469 75.007812 C 101.574219 70.609375 100.53125 65.542969 99.523438 60.566406 C 99.125 64.949219 101.625 69.453125 105.546875 71.441406 C 102.308594 64.191406 99.707031 56.65625 97.785156 48.949219 C 98.480469 56.625 103.339844 63.792969 110.183594 67.574219 Z M 110.1875 67.578125 " fill-opacity="1" fill-rule="nonzero"/><path fill="#262626" d="M 94.730469 19.1875 C 95.722656 26.808594 99.703125 33.714844 104.25 39.90625 C 108.796875 46.101562 114 51.832031 118 58.394531 C 122.003906 64.953125 124.785156 72.621094 123.808594 80.246094 C 126.339844 72.859375 125.128906 64.601562 122.109375 57.402344 C 119.089844 50.203125 114.390625 43.855469 109.734375 37.589844 C 105.070312 31.3125 100.402344 25.039062 94.730469 19.1875 Z M 94.730469 19.1875 " fill-opacity="1" fill-rule="nonzero"/></svg>